<mxfile host="app.diagrams.net" modified="2024-04-19T05:01:24.748Z" agent="Mozilla/5.0 (Windows NT 10.0; Win64; x64) AppleWebKit/537.36 (KHTML, like Gecko) Chrome/123.0.0.0 Safari/537.36 Edg/123.0.0.0" etag="_PfsxaRb129SHSMrkOQy" version="24.2.5" type="device">
  <diagram name="Page-1" id="jbQRRs1qvZFpRHF1ZXqp">
    <mxGraphModel dx="4102" dy="1570" grid="1" gridSize="10" guides="1" tooltips="1" connect="1" arrows="1" fold="1" page="1" pageScale="1" pageWidth="850" pageHeight="1100" math="0" shadow="0">
      <root>
        <mxCell id="0" />
        <mxCell id="1" parent="0" />
        <mxCell id="5Ylmqhk2nr8oeCBV456k-31" style="edgeStyle=orthogonalEdgeStyle;rounded=0;orthogonalLoop=1;jettySize=auto;html=1;exitX=0;exitY=0;exitDx=0;exitDy=0;" edge="1" parent="1" source="5Ylmqhk2nr8oeCBV456k-2" target="5Ylmqhk2nr8oeCBV456k-32">
          <mxGeometry relative="1" as="geometry">
            <mxPoint x="40" y="130" as="targetPoint" />
          </mxGeometry>
        </mxCell>
        <mxCell id="5Ylmqhk2nr8oeCBV456k-2" value="" style="rounded=0;whiteSpace=wrap;html=1;" vertex="1" parent="1">
          <mxGeometry x="115" y="190" width="1555" height="20" as="geometry" />
        </mxCell>
        <mxCell id="5Ylmqhk2nr8oeCBV456k-3" value="" style="rounded=0;whiteSpace=wrap;html=1;" vertex="1" parent="1">
          <mxGeometry x="115" y="830" width="1555" height="20" as="geometry" />
        </mxCell>
        <mxCell id="5Ylmqhk2nr8oeCBV456k-6" value="&lt;font style=&quot;font-size: 48px;&quot;&gt;8 FT&lt;/font&gt;" style="text;html=1;align=center;verticalAlign=middle;whiteSpace=wrap;rounded=0;" vertex="1" parent="1">
          <mxGeometry x="760" y="120" width="170" height="30" as="geometry" />
        </mxCell>
        <mxCell id="5Ylmqhk2nr8oeCBV456k-9" value="" style="rounded=0;whiteSpace=wrap;html=1;" vertex="1" parent="1">
          <mxGeometry x="115" y="210" width="25" height="620" as="geometry" />
        </mxCell>
        <mxCell id="5Ylmqhk2nr8oeCBV456k-10" value="" style="rounded=0;whiteSpace=wrap;html=1;" vertex="1" parent="1">
          <mxGeometry x="1645" y="210" width="25" height="620" as="geometry" />
        </mxCell>
        <mxCell id="5Ylmqhk2nr8oeCBV456k-11" value="&lt;span style=&quot;font-size: 48px;&quot;&gt;5 FT&lt;/span&gt;" style="text;html=1;align=center;verticalAlign=middle;whiteSpace=wrap;rounded=0;" vertex="1" parent="1">
          <mxGeometry x="-70" y="535" width="170" height="30" as="geometry" />
        </mxCell>
        <mxCell id="5Ylmqhk2nr8oeCBV456k-29" style="edgeStyle=orthogonalEdgeStyle;rounded=0;orthogonalLoop=1;jettySize=auto;html=1;exitX=0.75;exitY=1;exitDx=0;exitDy=0;entryX=0.75;entryY=0;entryDx=0;entryDy=0;" edge="1" parent="1" source="5Ylmqhk2nr8oeCBV456k-12" target="5Ylmqhk2nr8oeCBV456k-13">
          <mxGeometry relative="1" as="geometry" />
        </mxCell>
        <mxCell id="5Ylmqhk2nr8oeCBV456k-12" value="" style="rounded=0;whiteSpace=wrap;html=1;" vertex="1" parent="1">
          <mxGeometry x="140" y="340" width="1500" height="20" as="geometry" />
        </mxCell>
        <mxCell id="5Ylmqhk2nr8oeCBV456k-13" value="" style="rounded=0;whiteSpace=wrap;html=1;" vertex="1" parent="1">
          <mxGeometry x="140" y="515" width="1500" height="20" as="geometry" />
        </mxCell>
        <mxCell id="5Ylmqhk2nr8oeCBV456k-14" value="" style="rounded=0;whiteSpace=wrap;html=1;" vertex="1" parent="1">
          <mxGeometry x="140" y="680" width="1500" height="20" as="geometry" />
        </mxCell>
        <mxCell id="5Ylmqhk2nr8oeCBV456k-15" value="" style="rounded=1;whiteSpace=wrap;html=1;" vertex="1" parent="1">
          <mxGeometry x="220" y="240" width="150" height="60" as="geometry" />
        </mxCell>
        <mxCell id="5Ylmqhk2nr8oeCBV456k-16" value="" style="rounded=1;whiteSpace=wrap;html=1;" vertex="1" parent="1">
          <mxGeometry x="1440" y="240" width="150" height="60" as="geometry" />
        </mxCell>
        <mxCell id="5Ylmqhk2nr8oeCBV456k-17" value="" style="rounded=1;whiteSpace=wrap;html=1;" vertex="1" parent="1">
          <mxGeometry x="1440" y="750" width="150" height="60" as="geometry" />
        </mxCell>
        <mxCell id="5Ylmqhk2nr8oeCBV456k-18" value="" style="rounded=1;whiteSpace=wrap;html=1;" vertex="1" parent="1">
          <mxGeometry x="220" y="750" width="150" height="60" as="geometry" />
        </mxCell>
        <mxCell id="5Ylmqhk2nr8oeCBV456k-19" value="" style="rounded=0;whiteSpace=wrap;html=1;" vertex="1" parent="1">
          <mxGeometry x="1350" y="210" width="25" height="620" as="geometry" />
        </mxCell>
        <mxCell id="5Ylmqhk2nr8oeCBV456k-20" value="" style="rounded=0;whiteSpace=wrap;html=1;" vertex="1" parent="1">
          <mxGeometry x="1060" y="200" width="25" height="620" as="geometry" />
        </mxCell>
        <mxCell id="5Ylmqhk2nr8oeCBV456k-21" value="" style="rounded=0;whiteSpace=wrap;html=1;" vertex="1" parent="1">
          <mxGeometry x="735" y="215" width="25" height="620" as="geometry" />
        </mxCell>
        <mxCell id="5Ylmqhk2nr8oeCBV456k-22" value="" style="rounded=0;whiteSpace=wrap;html=1;" vertex="1" parent="1">
          <mxGeometry x="425" y="210" width="25" height="620" as="geometry" />
        </mxCell>
        <mxCell id="5Ylmqhk2nr8oeCBV456k-23" value="" style="rounded=1;whiteSpace=wrap;html=1;rotation=90;" vertex="1" parent="1">
          <mxGeometry x="1290" y="510" width="460" height="30" as="geometry" />
        </mxCell>
        <mxCell id="5Ylmqhk2nr8oeCBV456k-24" value="" style="rounded=1;whiteSpace=wrap;html=1;rotation=90;" vertex="1" parent="1">
          <mxGeometry x="65" y="510" width="460" height="30" as="geometry" />
        </mxCell>
        <mxCell id="5Ylmqhk2nr8oeCBV456k-27" style="edgeStyle=orthogonalEdgeStyle;rounded=0;orthogonalLoop=1;jettySize=auto;html=1;exitX=1;exitY=0.25;exitDx=0;exitDy=0;entryX=-0.08;entryY=0.277;entryDx=0;entryDy=0;entryPerimeter=0;" edge="1" parent="1" source="5Ylmqhk2nr8oeCBV456k-21" target="5Ylmqhk2nr8oeCBV456k-20">
          <mxGeometry relative="1" as="geometry" />
        </mxCell>
        <mxCell id="5Ylmqhk2nr8oeCBV456k-28" value="&lt;span style=&quot;font-size: 30px;&quot;&gt;3 3/5 FT&lt;/span&gt;" style="text;html=1;align=center;verticalAlign=middle;whiteSpace=wrap;rounded=0;" vertex="1" parent="1">
          <mxGeometry x="830" y="380" width="170" height="30" as="geometry" />
        </mxCell>
        <mxCell id="5Ylmqhk2nr8oeCBV456k-30" value="&lt;span style=&quot;font-size: 30px;&quot;&gt;1 1/4 FT&lt;/span&gt;" style="text;html=1;align=center;verticalAlign=middle;whiteSpace=wrap;rounded=0;rotation=90;" vertex="1" parent="1">
          <mxGeometry x="1150" y="420" width="170" height="30" as="geometry" />
        </mxCell>
        <mxCell id="5Ylmqhk2nr8oeCBV456k-32" value="&lt;font style=&quot;font-size: 24px;&quot;&gt;1x1 Steel beam&lt;/font&gt;" style="text;html=1;align=center;verticalAlign=middle;whiteSpace=wrap;rounded=0;" vertex="1" parent="1">
          <mxGeometry x="-120" y="115" width="220" height="30" as="geometry" />
        </mxCell>
        <mxCell id="5Ylmqhk2nr8oeCBV456k-33" value="&lt;span style=&quot;font-size: 72px;&quot;&gt;Beams are 52.3 LB&lt;/span&gt;" style="text;html=1;align=center;verticalAlign=middle;whiteSpace=wrap;rounded=0;" vertex="1" parent="1">
          <mxGeometry x="505" y="940" width="680" height="30" as="geometry" />
        </mxCell>
      </root>
    </mxGraphModel>
  </diagram>
</mxfile>
